<?xml version="1.0" standalone="no"?>
<!DOCTYPE svg PUBLIC "-//W3C//DTD SVG 20010904//EN"
 "http://www.w3.org/TR/2001/REC-SVG-20010904/DTD/svg10.dtd">
<svg version="1.0" xmlns="http://www.w3.org/2000/svg"
 width="1500.000000pt" height="1500.000000pt" viewBox="0 0 1500.000000 1500.000000"
 preserveAspectRatio="xMidYMid meet">
<metadata>
Created by potrace 1.14, written by Peter Selinger 2001-2017
</metadata>
<g transform="translate(0.000000,1500.000000) scale(0.100000,-0.100000)"
fill="#000000" stroke="none">
<path d="M7250 14259 c-263 -30 -500 -116 -712 -258 -341 -230 -561 -534 -644
-890 -34 -142 -43 -390 -20 -536 46 -301 166 -540 385 -769 290 -301 637 -463
1061 -496 402 -30 782 70 1090 288 116 82 305 269 383 379 190 268 280 611
248 943 -36 363 -170 633 -444 896 -271 261 -574 402 -949 443 -111 13 -288
12 -398 0z"/>
<path d="M5900 5315 l0 -4865 1550 0 1550 0 0 4865 0 4865 -1550 0 -1550 0 0
-4865z"/>
</g>
</svg>
